Coordinates
version=1
nRows=5
nColumns=63
inDegrees=yes

Units are S.I. units (second, meters, Newtons, ...)
If the header above contains a line with 'inDegrees', this indicates whether rotational values are in degrees (yes) or radians (no).

endheader
time	pelvis_tilt	pelvis_list	pelvis_rotation	pelvis_tx	pelvis_ty	pelvis_tz	hip_flexion_r	hip_adduction_r	hip_rotation_r	knee_angle_r	knee_angle_r_beta	ankle_angle_r	subtalar_angle_r	mtp_angle_r	hip_flexion_l	hip_adduction_l	hip_rotation_l	knee_angle_l	knee_angle_l_beta	ankle_angle_l	subtalar_angle_l	mtp_angle_l	L5_S1_Flex_Ext	L5_S1_Lat_Bending	L5_S1_axial_rotation	L4_L5_Flex_Ext	L4_L5_Lat_Bending	L4_L5_axial_rotation	L3_L4_Flex_Ext	L3_L4_Lat_Bending	L3_L4_axial_rotation	L2_L3_Flex_Ext	L2_L3_Lat_Bending	L2_L3_axial_rotation	L1_L2_Flex_Ext	L1_L2_Lat_Bending	L1_L2_axial_rotation	L1_T12_Flex_Ext	L1_T12_Lat_Bending	L1_T12_axial_rotation	Abs_r3	Abs_r2	Abs_r1	Abs_t1	Abs_t2	neck_flexion	neck_bending	neck_rotation	arm_flex_r	arm_add_r	arm_rot_r	elbow_flex_r	pro_sup_r	wrist_flex_r	wrist_dev_r	arm_flex_l	arm_add_l	arm_rot_l	elbow_flex_l	pro_sup_l	wrist_flex_l	wrist_dev_l
      1.91525424	     -0.33314486	     -3.04056945	     85.35495337	      0.17860768	      0.93035763	      0.38140251	     -2.56308978	     -2.84110766	     10.58647154	      2.13964257	      0.03734381	     20.90341698	     -1.12652277	      0.00000000	     -2.99727794	     -0.19566890	    -13.11910416	      2.71886420	      0.04745313	     21.51806217	     10.74516575	      0.00000000	      0.12218070	      0.35791626	      0.94507180	      0.22690178	      0.47602863	      1.00413879	      0.20073067	      0.87023760	      1.00413879	      0.13964032	      0.87023760	      0.82693782	      0.11345700	      0.72986284	      0.76787084	      0.06981405	      0.55441229	      0.70880385	      0.87272451	      4.04882036	      5.25620582	      0.00000000	      0.00000000	     26.86433249	      1.88751396	      8.06221470	     15.78136153	     -8.92536428	     76.80571533	     39.41459843	     46.90361089	     -5.95512513	     -3.06822516	     18.95575950	     -5.90711166	     75.63092819	     39.22723915	     71.78542644	      4.28286111	      5.26797619
      1.93220339	     -0.38304526	     -3.10021883	     84.67231995	      0.17966004	      0.93024212	      0.38129454	     -2.20815605	     -2.88645408	      9.94427274	      2.51697154	      0.04392944	     21.39349192	      0.48257250	      0.00000000	     -3.08434226	     -0.07982395	    -13.09343275	      2.52714151	      0.04410694	     21.31000621	      9.73522463	      0.00000000	      0.13188061	      0.35344751	      1.03703456	      0.24491548	      0.47008518	      1.10184922	      0.21666665	      0.85937227	      1.10184922	      0.15072635	      0.85937227	      0.90740524	      0.12246433	      0.72075015	      0.84259058	      0.07535658	      0.54749019	      0.77777592	      0.94201000	      3.99826888	      5.76767513	      0.00000000	      0.00000000	     27.12355718	      2.19366054	      8.02965236	     16.03367701	     -8.82428728	     77.08606034	     39.11523119	     48.13787777	     -5.85491570	     -3.24359720	     19.16148149	     -5.89770707	     75.34047990	     39.09715609	     71.66448579	      5.92518398	      5.96462223
      1.94915254	     -0.40385803	     -3.15578658	     84.23907519	      0.18045231	      0.93011991	      0.38121188	     -1.97672751	     -2.86231189	     10.18375982	      2.75194787	      0.04803055	     21.53236248	      0.43249418	      0.00000000	     -3.10252173	     -0.05097165	    -13.81134498	      2.45513146	      0.04285013	     21.34041115	     10.08846352	      0.00000000	      0.13537069	      0.35203554	      1.07715516	      0.25139691	      0.46820727	      1.14447736	      0.22240051	      0.85593922	      1.14447736	      0.15471516	      0.85593922	      0.94251076	      0.12570523	      0.71787088	      0.87518857	      0.07735081	      0.54530306	      0.80786637	      0.96693932	      3.98229646	      5.99081385	      0.00000000	      0.00000000	     27.29243716	      2.42022320	      7.97574802	     16.07965968	     -8.73647078	     76.17657199	     38.99120106	     52.02663453	     -6.04304321	     -2.37121553	     18.81885270	     -5.88253631	     72.68571746	     39.27519108	     75.61708586	      7.81479851	      7.22405713
      1.96610169	     -0.41986525	     -3.19939518	     84.15300261	      0.18070041	      0.93007823	      0.38132704	     -1.91457305	     -2.84703481	     10.14787295	      2.75701115	      0.04811892	     21.54155095	      0.39055366	      0.00000000	     -3.05805645	     -0.03375035	    -13.87792762	      2.41922256	      0.04222340	     21.38261639	     10.04587400	      0.00000000	      0.13521481	      0.35518243	      1.07709905	      0.25110743	      0.47239264	      1.14441774	      0.22214442	      0.86359057	      1.14441774	      0.15453701	      0.86359057	      0.94246167	      0.12556048	      0.72428802	      0.87514298	      0.07726175	      0.55017759	      0.80782429	      0.96582590	      4.01789472	      5.99050178	      0.00000000	      0.00000000	     27.28493577	      2.44961518	      7.91469339	     16.26101808	     -8.76945369	     76.11871528	     38.92223804	     52.07455292	     -6.06212771	     -2.34279026	     19.12253109	     -5.85258920	     72.57582715	     39.34480804	     75.59995913	      7.89486250	      7.28426882
      1.98305085	     -0.46291282	     -3.27819971	     83.47225388	      0.18212149	      0.92989548	      0.38174639	     -1.50011378	     -2.82262542	     10.39414420	      3.25403454	      0.05679362	     21.77660299	      0.71648913	      0.00000000	     -3.02048683	      0.00714608	    -14.72853468	      2.37269253	      0.04141130	     21.41759664	     10.17195432	      0.00000000	      0.13037873	      0.34178618	      1.18857580	      0.24212635	      0.45457563	      1.26286178	      0.21419922	      0.83101893	      1.26286178	      0.14900986	      0.83101893	      1.04000382	      0.12106969	      0.69697039	      0.96571783	      0.07449841	      0.52942680	      0.89143185	      0.93128226	      3.86635367	      6.61050200	      0.00000000	      0.00000000	     27.42587364	      2.34276358	      6.95437479	     16.30646399	     -8.66177925	     74.86037077	     38.80098241	     57.17125346	     -6.05334961	     -1.29040396	     18.84548855	     -5.76844058	     69.34747810	     39.66374469	     74.21161545	     11.16620244	     11.32088172
